<svg xmlns="http://www.w3.org/2000/svg" width="256" height="256" viewBox="0 0 256 256"><g fill="#512200" stroke="#512200" stroke-width="7.571" stroke-miterlimit="10"><path d="M195.7 110.5c2.5 9.7 3.8 20 3.8 30.8 0 1.2 0 2.5-.1 3.7l12.2 4.9 10.1-8.6 7.7 9.4-15.2 12.9-15.8-6.6c-1.8 14.4-6 27.8-12.2 39.4l2.2-3 11.9 7 11.3-7 6.3 10.5-16.9 10.5-18.6-11.2c-14.5 23.3-37.1 38.3-62.4 38.3-25.2 0-47.7-14.9-62.2-38.1l-18.3 11-16.9-10.5 6.3-10.5 11.3 7 11.9-7 .8 1.2c-5.6-11.2-9.5-23.8-11.2-37.4l-15.3 6.4-15.2-12.9 7.7-9.4 10.1 8.6 11.7-4.7-.1-3.9c0-10.7 1.4-21.1 3.8-30.8l-19.8-.8-8.6-18.2 10.8-5.4 5.8 12.1 13.9.8.2 4.1c8.3-25.1 24.3-45.1 44.3-55.1.4-7.7 6.6-13.8 14.2-13.8h33.2c7.9 0 14.3 6.5 14.3 14.6 0 .4-.1.7-.1 1 18.8 10.7 33.8 30.3 41.4 54.7l.3-5.5 13.7-.7 5.8-12.1 10.8 5.4-8.6 18.2-20.3.7zM160.3 21.3l-1.6 4.3-2.4 1.1-5.1 1.5-4.2 2.6-6 3.4v-3.4l6.8-4.9 4.9-1.5 4.3-3.1 2.5-5.1 4.8-1.7-1.4 4.8zM92.3 28.2l-5-1.5-2.4-1.1-1.6-4.3-2.7-2-1.3-4.8 4.8 1.7 2.5 5.1 4.3 3.1 4.9 1.5 6.7 4.9v3.4l-5.9-3.4z"/></g></svg>