<?xml version="1.0" encoding="utf-8"?>
<!-- Generator: Adobe Illustrator 18.1.1, SVG Export Plug-In . SVG Version: 6.00 Build 0)  -->
<svg version="1.1" id="Layer_1" xmlns="http://www.w3.org/2000/svg" xmlns:xlink="http://www.w3.org/1999/xlink" x="0px" y="0px"
	 width="256px" height="256px" viewBox="0 0 256 256" enable-background="new 0 0 256 256" xml:space="preserve">
<g>
	<g>
		<path fill="#512200" stroke="#512200" stroke-width="7.571" stroke-miterlimit="10" d="M195.7,110.5c2.5,9.7,3.8,20,3.8,30.8
			c0,1.2,0,2.5-0.1,3.7l12.2,4.9l10.1-8.6l7.7,9.4l-15.2,12.9l-15.8-6.6c-1.8,14.4-6,27.8-12.2,39.4l2.2-3l11.9,7l11.3-7l6.3,10.5
			l-16.9,10.5l-18.6-11.2c-14.5,23.3-37.1,38.3-62.4,38.3c-25.2,0-47.7-14.9-62.2-38.1l-18.3,11l-16.9-10.5l6.3-10.5l11.3,7l11.9-7
			l0.8,1.2c-5.6-11.2-9.5-23.8-11.2-37.4l-15.3,6.4l-15.2-12.9l7.7-9.4l10.1,8.6l11.7-4.7c0-1.3-0.1-2.6-0.1-3.9
			c0-10.7,1.4-21.1,3.8-30.8l-19.8-0.8l-8.6-18.2l10.8-5.4l5.8,12.1L46.5,99l0.2,4.1C55,78,71,58,91,48c0.4-7.7,6.6-13.8,14.2-13.8
			h33.2c7.9,0,14.3,6.5,14.3,14.6c0,0.4-0.1,0.7-0.1,1c18.8,10.7,33.8,30.3,41.4,54.7l0.3-5.5l13.7-0.7l5.8-12.1l10.8,5.4l-8.6,18.2
			L195.7,110.5z"/>
		<polygon fill="#512200" stroke="#512200" stroke-width="7.571" stroke-miterlimit="10" points="160.3,21.3 158.7,25.6 156.3,26.7 
			151.2,28.2 147,30.8 141,34.2 141,30.8 147.8,25.9 152.7,24.4 157,21.3 159.5,16.2 164.3,14.5 162.9,19.3 		"/>
		<polygon fill="#512200" stroke="#512200" stroke-width="7.571" stroke-miterlimit="10" points="92.3,28.2 87.3,26.7 84.9,25.6 
			83.3,21.3 80.6,19.3 79.3,14.5 84.1,16.2 86.6,21.3 90.9,24.4 95.8,25.9 102.5,30.8 102.5,34.2 96.6,30.8 		"/>
	</g>
</g>
<g>
</g>
<g>
</g>
<g>
</g>
<g>
</g>
<g>
</g>
<g>
</g>
<g>
</g>
<g>
</g>
<g>
</g>
<g>
</g>
<g>
</g>
<g>
</g>
<g>
</g>
<g>
</g>
<g>
</g>
</svg>
